<svg xmlns="http://www.w3.org/2000/svg" width="32" height="32" viewBox="0 0 256 256">
  <defs>
    <linearGradient id="bg" x1="0%" y1="0%" x2="100%" y2="100%">
      <stop offset="0%" stop-color="#0f172a"/>
      <stop offset="100%" stop-color="#1e293b"/>
    </linearGradient>
    <linearGradient id="up" x1="0%" y1="100%" x2="0%" y2="0%">
      <stop offset="0%" stop-color="#16a34a"/>
      <stop offset="100%" stop-color="#4ade80"/>
    </linearGradient>
  </defs>
  <!-- Background -->
  <rect x="4" y="4" width="248" height="248" rx="52" ry="52" fill="url(#bg)"/>
  <!-- Chart bars - grey -->
  <rect x="56" y="178" width="22" height="30" rx="4" fill="#475569" opacity="0.5"/>
  <rect x="90" y="148" width="22" height="60" rx="4" fill="#475569" opacity="0.5"/>
  <rect x="124" y="120" width="22" height="88" rx="4" fill="#475569" opacity="0.5"/>
  <!-- Chart bars - green -->
  <rect x="158" y="90" width="22" height="118" rx="4" fill="#16a34a" opacity="0.5"/>
  <rect x="192" y="56" width="22" height="152" rx="4" fill="#16a34a" opacity="0.6"/>
  <!-- Upward arrow -->
  <path d="M44 190 L100 140 L140 165 L196 80 L196 120 L220 120 L220 44 L144 44 L144 68 L172 68 L140 108 L100 84 L44 152 Z"
        fill="url(#up)"/>
</svg>
